<svg width="100" height="100" viewBox="0 0 100 100" fill="none" xmlns="http://www.w3.org/2000/svg">
<rect width="100" height="100" fill="#16161A"/>
<path d="M22.0118 47.5V23.5L13.0118 16V49C12.4118 71.2 34.7618 81.25 46.0118 83.5V74.5C26.5117 68.5 22.0117 54.25 22.0118 47.5Z" fill="#38419D"/>
<path d="M86.5117 16L77.5117 23.5V49C77.5117 55.75 75.2617 67 55.0117 74.5V83.5C65.5117 81.25 86.5117 71.2 86.5117 49V16Z" fill="#38419D"/>
<path d="M35.5117 31C33.1117 31.6 32.5117 33.75 32.5117 34.75C32.5117 37.15 34.5117 38.25 35.5117 38.5H65.5117C65.9035 38.5 68.5117 37.75 68.5117 34.75C68.5117 32.35 66.2506 31.25 65.12 31H35.5117Z" fill="#38419D"/>
<path d="M65.12 43H35.5117C34.5117 43.25 32.5117 44.35 32.5117 46.75C32.5117 49.15 34.5117 50.25 35.5117 50.5H65.12C65.12 50.5 68.5117 49.75 68.5117 46.75C68.5117 44.35 66.2506 43.25 65.12 43Z" fill="#38419D"/>
<path d="M77 31C76.2 31.6 76 33.75 76 34.75C76 37.15 76.6667 38.25 77 38.5H87C87.1306 38.5 88 37.75 88 34.75C88 32.35 87.2463 31.25 86.8694 31H77Z" fill="#16161A"/>
<path d="M86.8694 43H77C76.6667 43.25 76 44.35 76 46.75C76 49.15 76.6667 50.25 77 50.5H86.8694C86.8694 50.5 88 49.75 88 46.75C88 44.35 87.2463 43.25 86.8694 43Z" fill="#16161A"/>
<path d="M12 31C11.2 31.6 11 33.75 11 34.75C11 37.15 11.6667 38.25 12 38.5H22C22.1306 38.5 23 37.75 23 34.75C23 32.35 22.2463 31.25 21.8694 31H12Z" fill="#16161A"/>
<path d="M21.8694 43H12C11.6667 43.25 11 44.35 11 46.75C11 49.15 11.6667 50.25 12 50.5H21.8694C21.8694 50.5 23 49.75 23 46.75C23 44.35 22.2463 43.25 21.8694 43Z" fill="#16161A"/>
</svg>
